# xmcd
#
# Track frame offsets: 
#        183
#        31935
#        62925
#        87868
#        114128
#        144013
#        178940
#        204928
#        256670
#
# Disc length: 3861 seconds
#
# Revision: 1
# Processed by: cddbd v1.5.2PL0 Copyright (c) Steve Scherf et al.
# Submitted via: ExactAudioCopy v0.99pb1
#
DISCID=6b0f1309
DTITLE=Phil Woods - The Rgths of Swing - Les Génies du Jazz V 9
DYEAR=1991
DGENRE=Jazz
TTITLE0=Tipsy
TTITLE1=Alison
TTITLE2=Please say yes
TTITLE3=Hard sock dance
TTITLE4=The rights of swing
TTITLE5=Ballad
TTITLE6=Waltz
TTITLE7=Sherzo
TTITLE8=Presto
EXTD=YEAR: 1960
EXTT0=
EXTT1=
EXTT2=
EXTT3=
EXTT4=
EXTT5=
EXTT6=
EXTT7=
EXTT8=
PLAYORDER=
